<svg width="20" height="18" viewBox="0 0 16 14" fill="none" xmlns="http://www.w3.org/2000/svg">
<path fill-rule="evenodd" clip-rule="evenodd" d="M7.63294 13.5728C7.54098 13.665 7.43173 13.7381 7.31144 13.788C7.19116 13.838 7.06222 13.8636 6.932 13.8636C6.80177 13.8636 6.67283 13.838 6.55255 13.788C6.43227 13.7381 6.32301 13.665 6.23105 13.5728L0.290807 7.63255C0.198608 7.54058 0.125459 7.43133 0.0755487 7.31105C0.0256377 7.19077 -5.3288e-05 7.06182 -5.32766e-05 6.9316C-5.32652e-05 6.80137 0.0256378 6.67243 0.0755488 6.55215C0.125459 6.43187 0.198609 6.32261 0.290807 6.23065L6.23105 0.290409C6.41695 0.104506 6.66909 6.76012e-05 6.932 6.76242e-05C7.1949 6.76472e-05 7.44704 0.104506 7.63295 0.290409C7.81885 0.476313 7.92329 0.728452 7.92329 0.991358C7.92329 1.25426 7.81885 1.5064 7.63295 1.69231L2.39167 6.9316L7.63294 12.1709C7.72514 12.2629 7.79829 12.3721 7.8482 12.4924C7.89811 12.6127 7.92381 12.7416 7.92381 12.8718C7.92381 13.0021 7.89811 13.131 7.8482 13.2513C7.79829 13.3716 7.72514 13.4808 7.63294 13.5728Z" fill="white"/>
<path fill-rule="evenodd" clip-rule="evenodd" d="M15.842 6.93049C15.842 7.19307 15.7377 7.44489 15.552 7.63056C15.3664 7.81622 15.1145 7.92053 14.852 7.92053L1.98143 7.92053C1.71886 7.92053 1.46704 7.81622 1.28137 7.63055C1.0957 7.44489 0.991393 7.19307 0.991393 6.93049C0.991393 6.66792 1.0957 6.41609 1.28137 6.23043C1.46704 6.04476 1.71886 5.94045 1.98143 5.94045L14.852 5.94045C15.1145 5.94045 15.3664 6.04476 15.552 6.23043C15.7377 6.4161 15.842 6.66792 15.842 6.93049Z" fill="white"/>
</svg>